HIERARCHY
ROOT Hips
{
    OFFSET 0.0 0.0 0.0
    CHANNELS 6 Xposition Yposition Zposition Zrotation Xrotation Yrotation
    JOINT LeftUpLeg
    {
        OFFSET 11.6521607463926 0.0 0.0
        CHANNELS 3 Zrotation Xrotation Yrotation
        JOINT LeftLeg
        {
            OFFSET 0.0 0.0 -61.06146444340382
            CHANNELS 3 Zrotation Xrotation Yrotation
            JOINT LeftFoot
            {
                OFFSET 0.0 0.0 -46.26892892157278
                CHANNELS 3 Zrotation Xrotation Yrotation
                JOINT LeftToeBase
                {
                    OFFSET 0.0 -11.794399109348031 0.0
                    CHANNELS 3 Zrotation Xrotation Yrotation
                    End Site
                    {
                        OFFSET 0 0 0
                    }
                }
            }
        }
    }
    JOINT RightUpLeg
    {
        OFFSET -11.6521607463926 0.0 0.0
        CHANNELS 3 Zrotation Xrotation Yrotation
        JOINT RightLeg
        {
            OFFSET 0.0 0.0 -61.06146444340382
            CHANNELS 3 Zrotation Xrotation Yrotation
            JOINT RightFoot
            {
                OFFSET 0.0 0.0 -46.26892892157278
                CHANNELS 3 Zrotation Xrotation Yrotation
                JOINT RightToeBase
                {
                    OFFSET 0.0 -11.794399109348031 0.0
                    CHANNELS 3 Zrotation Xrotation Yrotation
                    End Site
                    {
                        OFFSET 0 0 0
                    }
                }
            }
        }
    }
    JOINT Spine
    {
        OFFSET 0.0 0.0 11.504834707515329
        CHANNELS 3 Zrotation Xrotation Yrotation
        JOINT Spine1
        {
            OFFSET 0.0 0.0 11.325434738887017
            CHANNELS 3 Zrotation Xrotation Yrotation
            JOINT Spine2
            {
                OFFSET 0.0 0.0 11.325434738887019
                CHANNELS 3 Zrotation Xrotation Yrotation
                JOINT Spine3
                {
                    OFFSET 0.0 0.0 11.325434738887015
                    CHANNELS 3 Zrotation Xrotation Yrotation
                    JOINT Spine4
                    {
                        OFFSET 0.0 0.0 11.32543473888702
                        CHANNELS 3 Zrotation Xrotation Yrotation
                        JOINT RightShoulder
                        {
                            OFFSET -22.003302724222372 0.0 0.0
                            CHANNELS 3 Zrotation Xrotation Yrotation
                            JOINT RightArm
                            {
                                OFFSET -33.77473510716133 0.0 0.0
                                CHANNELS 3 Zrotation Xrotation Yrotation
                                JOINT RightForeArm
                                {
                                    OFFSET -32.259971405434975 0.0 0.0
                                    CHANNELS 3 Zrotation Xrotation Yrotation
                                    JOINT RightHand
                                    {
                                        OFFSET -11.996058148310139 0.0 0.0
                                        CHANNELS 3 Zrotation Xrotation Yrotation
                                        End Site
                                        {
                                            OFFSET 0 0 0
                                        }
                                    }
                                }
                            }
                        }
                        JOINT LeftShoulder
                        {
                            OFFSET 22.003302724222372 0.0 0.0
                            CHANNELS 3 Zrotation Xrotation Yrotation
                            JOINT LeftArm
                            {
                                OFFSET 33.77473510716133 0.0 0.0
                                CHANNELS 3 Zrotation Xrotation Yrotation
                                JOINT LeftForeArm
                                {
                                    OFFSET 32.259971405434975 0.0 0.0
                                    CHANNELS 3 Zrotation Xrotation Yrotation
                                    JOINT LeftHand
                                    {
                                        OFFSET 11.996058148310139 0.0 0.0
                                        CHANNELS 3 Zrotation Xrotation Yrotation
                                        End Site
                                        {
                                            OFFSET 0 0 0
                                        }
                                    }
                                }
                            }
                        }
                        JOINT Neck
                        {
                            OFFSET 0.0 0.0 11.325434719878627
                            CHANNELS 3 Zrotation Xrotation Yrotation
                            JOINT Head
                            {
                                OFFSET 0.0 0.0 26.86190896427853
                                CHANNELS 3 Zrotation Xrotation Yrotation
                                End Site
                                {
                                    OFFSET 0 0 0
                                }
                            }
                        }
                    }
                }
            }
        }
    }
}
MOTION
Frames: 10
Frame Time: 0.03333333333333333
-64.28981194496154 -19.960022056102755 403.90934886932376 108.58416054475396 -51.620860296258115 93.86544256490433 -16.13977540221425 15.11450570126479 -0.7683508878142822 25.368955520137433 -17.18000495231733 48.31948832461741 -139.76484295477584 6.3611093629270335e-15 87.47077071929125 0.0 0.0 0.0 31.58220761542008 31.496127217770447 -0.3990049546758203 -25.569358700336863 -18.275330488388995 -7.099647544473384 -24.917714184548053 1.5902773407317584e-14 -45.41974660726842 4.4139062980501586e-32 1.5902773407317582e-15 -3.1805546814635164e-15 0.22135798523705383 -1.649049705671771 0.521307809279803 3.1805546814635168e-15 0.0 0.0 3.1805546814635168e-15 0.0 0.0 3.1805546814635168e-15 0.0 0.0 3.1805546814635168e-15 0.0 0.0 164.04755831084427 -25.448188991036954 176.85137924719209 25.579867861476075 -6.643343065113074e-15 -5.303203308162943e-16 -180.0 44.113464199895574 180.0 9.93923337957349e-17 3.1060104311167156e-18 -2.694034605743505e-36 -150.77548024575813 -1.3555395089634934 -96.78161986218944 -15.181599695611801 -4.360995864847935e-15 2.6275046672345126e-15 1.9214362985528837e-14 -45.69925355436914 4.6451694458961734e-15 0.0 0.0 3.1805546814635168e-15 -33.92685288532736 -8.533393810401449e-15 7.222663424966964e-16 0.0 0.0 1.5902773407317584e-15
-64.67085542678834 -20.295885908603672 403.6423530578614 108.89349016107232 -51.615711409839626 94.19734692288694 -16.70250431814246 15.253428360017997 -0.6509621908674037 26.01137174189077 -17.72698832440216 48.28175826619557 -138.24182378145198 -9.54166404439055e-15 90.26946663774889 0.0 0.0 0.0 32.1990624253549 31.445654563971868 -0.8972020955887468 -19.955477095159623 -14.78848358552886 -4.746658719051858 -25.28967674059428 4.770832022195275e-15 -50.49064668892378 8.827812596100317e-32 1.5902773407317582e-15 -6.361109362927033e-15 0.18272844685460474 -1.3748083688070387 -0.07995937301413199 0.0 0.0 0.0 0.0 0.0 0.0 0.0 0.0 0.0 0.0 0.0 0.0 162.76993900883966 -26.84481570568268 176.99043889757777 27.44889381837458 -2.951221992342947e-14 1.0688300332309949e-15 -180.0 29.32844243121018 180.0 -9.93923337957349e-17 0.0 0.0 -150.3048399639809 -1.715440183398056 -97.45079671381123 -15.340890509076184 7.98637026674131e-15 2.732873556230179e-16 3.762611138383621e-15 -42.804786900894804 -1.2189783414381866e-14 0.0 0.0 3.1805546814635168e-15 -31.556182891904772 7.651794647447515e-15 2.162079828409527e-15 0.0 0.0 0.0
-65.03583419322968 -20.560432076454166 403.4062797546387 108.99661767714348 -51.87400814888139 94.44209660026785 -16.849545194610275 15.292859870320603 -0.6428613457150956 26.647741017994207 -18.22695978638765 48.20556788017083 -136.92161606427658 -6.3611093629270335e-15 91.71590944556085 0.0 0.0 0.0 32.61419501407271 31.241459667027037 -1.147160681989522 -18.87391295651221 -13.98521723747905 -4.690829842242936 -7.098195447252355 -7.553817368475852e-15 -47.45647283873461 0.0 0.0 0.0 0.16791009839068935 -1.3173885868200128 -0.4405284648147396 -3.1805546814635168e-15 0.0 0.0 -3.1805546814635168e-15 0.0 0.0 -3.1805546814635168e-15 0.0 0.0 -3.1805546814635168e-15 0.0 0.0 161.86647314192285 -28.660039978666834 177.56762248206698 29.248754236595513 2.104125803142201e-14 1.9054624277688844e-15 180.0 16.751339506682864 -180.0 -3.975693351829397e-16 0.0 0.0 -149.70337689631225 -1.9451124821934287 -97.77392619359566 -15.473391859683757 1.0174271425190732e-14 7.801796735077384e-15 -5.497719343673812e-16 -41.558233527272286 -1.0414088476709346e-14 -5.29668755766019e-31 6.361109362927032e-15 9.541664044390547e-15 -29.042827975211384 5.402040624716148e-15 -2.435399357604995e-16 0.0 0.0 0.0
-65.3712610244751 -20.7679279088974 403.19604835510256 108.97742069935913 -52.28467879504838 94.64153112075523 -16.74955935744708 15.29893642753685 -0.6314004778658134 27.400139707940728 -18.79826470035092 48.14131884738614 -135.89291247292647 -1.90833280887811e-14 92.24079901176091 0.0 0.0 0.0 32.808851036275406 30.97336409294058 -1.198945097937465 -18.680157480028427 -13.68119005811261 -5.117201277862699 2.0006459195767214 1.013801804716496e-14 -46.292758233767884 -6.3611093629270335e-15 0.0 0.0 0.165987144663651 -1.384724962823625 -0.6619116202966188 0.0 0.0 0.0 0.0 0.0 0.0 0.0 0.0 0.0 0.0 0.0 0.0 161.21784643676375 -31.08164548353132 178.43419190240775 30.948738764408642 1.521699794996462e-14 -9.125304724855463e-16 -180.0 4.88315811104985 180.0 0.0 6.410805529824901e-15 0.0 -148.9989262634606 -2.0587611382918274 -97.8783607814222 -15.52273815587234 -4.0828378584481815e-15 -5.371416143777168e-15 -1.54043387057337e-14 -42.38844319767466 4.260719029292305e-15 0.0 0.0 0.0 -26.49797329353781 3.0283312131586663e-15 -4.188267261572253e-15 0.0 0.0 1.5902773407317584e-15
-65.66100518703462 -20.955105507373812 403.0086759567261 108.97507913523387 -52.38049440532525 94.80943501730023 -16.637158395389253 15.34486362069944 -0.5445952223199364 28.10292869064565 -19.292219443916686 48.032523670634106 -135.48052726163058 -6.3611093629270335e-15 92.44381459281836 0.0 0.0 0.0 33.009745476325435 30.851473633058387 -1.3817928514459423 -18.991161241037528 -13.764566863415656 -5.74757281111152 7.168694988488586 -5.565970692561154e-15 -45.60341139356296 0.0 0.0 0.0 0.1664817218616103 -1.455187397519209 -0.7461006071587303 -3.1805546814635168e-15 0.0 0.0 -3.1805546814635168e-15 0.0 0.0 -3.1805546814635168e-15 0.0 0.0 -3.1805546814635168e-15 0.0 0.0 161.26125966858766 -33.47256050927806 178.91724365647906 30.798812526517597 2.276710772010448e-14 -7.920349777783684e-15 180.0 0.08501882990970806 180.0 0.0 0.0 0.0 -148.65480183461074 -2.135624420042795 -97.85521732538396 -15.500491701372097 2.293672767485005e-15 6.731916936846082e-15 -6.576108944082361e-16 -45.728454986863646 6.6262305077680296e-15 3.180554681463516e-15 6.361109362927033e-15 6.361109362927033e-15 -26.399414987205386 -1.241003085068113e-14 -4.544112132432106e-15 1.5902773407317584e-15 2.2069531490250793e-32 1.5902773407317584e-15
-65.93331220149994 -21.143885672092438 402.85648097991947 108.9694194651608 -52.41434247019991 95.01926074118187 -16.61961888688754 15.424238723707566 0.367744563997627 29.683239773072188 -20.782253895128818 46.916995102803654 -135.31001927059341 -3.1805546814635168e-15 91.71475306990499 0.0 0.0 0.0 33.23510941239479 30.788405687181037 -1.6340781046923043 -19.678400170276923 -14.13734032249519 -6.5781457900462135 11.509871686098583 -3.975693351829396e-15 -44.78848953881018 0.0 0.0 0.0 0.17109675923673912 -1.5484110568265361 -0.7928140400059811 0.0 0.0 3.1805546814635164e-15 0.0 0.0 3.1805546814635164e-15 0.0 0.0 3.1805546814635164e-15 0.0 0.0 3.1805546814635164e-15 161.17316434377665 -36.402036647548094 179.47212232756794 30.558257705681154 5.387010925567173e-15 -6.473365581836231e-16 180.0 -6.403513635920008 -180.0 0.0 0.0 0.0 -148.18082863395716 -2.130348356145842 -97.72028387845984 -15.172281920248848 1.8912730136576758e-15 -2.154594614830375e-15 1.643845918546754e-14 -58.23974649538433 1.643845918546754e-14 0.0 0.0 0.0 -26.25014344942736 3.396787955364511e-14 1.388503501027204e-15 0.0 9.93923337957349e-17 0.0
-66.18975162506104 -21.328418362140653 402.7416355133057 109.0051166388867 -52.463574459381 95.30241472842945 -16.65220271182023 15.532719133869449 1.214373718527152 31.309820054143593 -22.21531043005759 45.81680462221649 -135.12496122762116 -6.3611093629270335e-15 91.2894829238727 0.0 0.0 0.0 33.46891735616088 30.782553275391464 -1.901014298487321 -20.363120376993574 -14.509403540196205 -7.458784239395374 15.167893939584276 7.156248033292914e-15 -44.06565654059261 0.0 0.0 -3.1805546814635168e-15 0.15484016489277488 -1.432682373603662 -0.6031160256970356 0.0 0.0 -3.1805546814635168e-15 0.0 0.0 -3.1805546814635168e-15 0.0 0.0 -3.1805546814635168e-15 0.0 0.0 -3.1805546814635168e-15 161.33236432482795 -39.06017442461801 -179.60886527751651 30.299274292538275 5.788138605461588e-15 8.039437082124867e-17 180.0 -11.768043779721207 180.0 -7.951386703658792e-16 -1.3793457181406746e-33 1.987846675914698e-16 -147.68814250607886 -1.7459718280907417 -97.42990082223935 -14.7563279374471 1.3479222233619386e-14 7.357862555333927e-15 4.924473131344938e-14 -77.73652653520571 5.6030528679251833e-14 0.0 0.0 3.1805546814635164e-15 -25.868330593478507 8.10559718727497e-15 2.2984074749012836e-16 0.0 0.0 1.5902773407317584e-15
-66.45814032554627 -21.546087491512296 402.6688779830933 109.0801794450662 -52.53313113962931 95.6752892654523 -16.762781869672807 15.62366259354244 2.1913927756984717 32.981019328665305 -23.81149110299264 44.28605624097749 -134.91704917806973 -9.54166404439055e-15 91.45619368832973 8.827812596100317e-32 3.1805546814635168e-15 -3.1805546814635168e-15 33.86034587326749 30.80370319842974 -2.26825656004352 -21.147761451335004 -14.975869551114409 -8.397593886503541 18.5914061075619 -7.951386703658792e-16 -43.38867374449536 0.0 0.0 0.0 0.16036634086211032 -1.4790888340809725 -0.9197865053955646 -3.1805546814635176e-15 0.0 0.0 -3.1805546814635176e-15 0.0 0.0 -3.1805546814635176e-15 0.0 0.0 -3.1805546814635176e-15 0.0 0.0 161.14945028357522 -41.37859250251078 -179.35693806975377 30.048721600129767 -6.648956241759332e-15 5.90102271085885e-15 -180.0 -16.31462150813837 180.0 7.951386703658792e-16 4.138037154422024e-33 5.963540027744094e-16 -147.182007253018 -1.739671835651212 -97.41120541742512 -14.420005065545517 1.6774977267086163e-15 -5.892613193172583e-16 2.8419505771619663e-14 -86.44911910911848 4.4170009557245545e-14 6.3611093629270335e-15 1.7655625192200634e-31 3.1805546814635168e-15 -25.42817163133184 6.053844733479665e-15 -5.155144464905164e-15 0.0 0.0 0.0
-66.73037202358246 -21.787557077407836 402.6341096878052 109.17717000708193 -52.543556930952676 96.09609439326586 -16.949092365795277 15.671548902051569 2.8533593784842557 34.406904834613464 -25.021359921025194 43.1080615865104 -134.62838589872507 3.1805546814635168e-15 91.85006261600391 0.0 0.0 0.0 34.349258917274085 30.843796508943893 -2.7346376465326108 -21.906958809632467 -15.482258543928104 -9.303452795791888 21.572866704305525 -2.3854160110976376e-15 -42.83324105280714 0.0 0.0 3.1805546814635168e-15 0.16652337521290161 -1.4851492859560942 -1.2539387932280324 0.0 0.0 0.0 0.0 0.0 0.0 0.0 0.0 0.0 0.0 0.0 0.0 160.95954460021412 -43.391782067388135 -179.12523396053763 29.697730963778287 2.649712653352538e-16 -1.7154693858656543e-15 180.0 -21.050146163353045 180.0 0.0 0.0 0.0 -146.74443579075898 -1.720777533640609 -97.3876761664209 -14.185333621123663 3.945270349597575e-15 4.908966249290018e-16 2.4273433377057578e-14 -84.43102402295469 2.2021783129206368e-14 0.0 0.0 0.0 -25.056710170168945 1.2505442062940347e-14 -8.624588580102648e-15 0.0 0.0 0.0
-66.9974319934845 -22.04193645715714 402.6297952651978 109.29666294818347 -52.5760214614295 96.54278176648315 -17.184961023348 15.683871073315595 3.285371669182843 35.629707351907776 -25.957127830623712 42.24941390941296 -134.26837003644664 3.1805546814635168e-15 92.26990159466875 0.0 0.0 0.0 34.92612423796892 30.887073791512957 -3.2365380729065034 -22.64074307493022 -16.000451500440835 -10.161688036585174 24.209054927680175 -2.2263882770244617e-14 -42.398809477470195 0.0 0.0 0.0 0.172699558940836 -1.4663892710260553 -1.578832210353472 -6.361109362927033e-15 0.0 0.0 -6.361109362927033e-15 0.0 0.0 -6.361109362927033e-15 0.0 0.0 -6.361109362927033e-15 0.0 0.0 160.8860991018864 -45.01223592942151 -178.9106506701658 29.359132320645678 1.3218286740206264e-14 6.471316755591989e-16 -180.0 -25.247227924886335 180.0 0.0 0.0 0.0 -146.2843596680291 -1.6716498398417332 -97.35938808166128 -14.022030791606294 -5.731216926530571e-15 -5.511597141679651e-15 1.467173951053669e-14 -74.54928820203065 2.715449016089746e-14 0.0 0.0 -3.1805546814635168e-15 -24.7558376063237 -1.5239660424417837e-14 -6.600746302745004e-15 -1.5902773407317588e-15 0.0 0.0
